<svg xmlns="http://www.w3.org/2000/svg" viewBox="0 0 32 32">
  <path transform="translate(0,-2)" d="M8.5 4.5h4.8v9.1h0.1c0.7-1.0 1.5-1.7 2.4-2.2 0.9-0.5 2.0-0.7 3.1-0.7 1.2 0 2.2 0.2 3.1 0.7 0.9 0.5 1.6 1.1 2.2 1.9 0.6 0.8 1.0 1.7 1.3 2.8 0.3 1.1 0.4 2.2 0.4 3.4 0 1.3-0.2 2.5-0.5 3.6-0.3 1.1-0.8 2.1-1.5 2.9-0.7 0.8-1.5 1.5-2.4 2.0-1.0 0.5-2.1 0.7-3.4 0.7-1.0 0-2.0-0.2-2.9-0.7-0.9-0.5-1.6-1.2-2.2-2.2h-0.1v2.5H8.5V4.5z M17.8 24.8c0.7 0 1.3-0.1 1.8-0.4 0.5-0.3 1.0-0.7 1.3-1.2 0.4-0.5 0.6-1.1 0.8-1.8 0.2-0.7 0.3-1.4 0.3-2.2 0-0.8-0.1-1.5-0.3-2.2-0.2-0.7-0.4-1.3-0.8-1.8-0.4-0.5-0.8-0.9-1.3-1.2-0.5-0.3-1.2-0.5-1.9-0.5-0.7 0-1.3 0.2-1.8 0.5-0.5 0.3-1.0 0.7-1.3 1.2-0.4 0.5-0.6 1.1-0.8 1.8-0.2 0.7-0.3 1.4-0.3 2.2 0 0.8 0.1 1.5 0.3 2.2 0.2 0.7 0.4 1.3 0.8 1.8 0.4 0.5 0.8 0.9 1.3 1.2 0.5 0.3 1.2 0.4 1.9 0.4z" fill="#000"/>
</svg>
